<?xml version="1.0" standalone="no"?>
<!DOCTYPE svg PUBLIC "-//W3C//DTD SVG 20010904//EN"
 "http://www.w3.org/TR/2001/REC-SVG-20010904/DTD/svg10.dtd">
<svg version="1.0" xmlns="http://www.w3.org/2000/svg"
 width="247.000000pt" height="81.000000pt" viewBox="0 0 247.000000 81.000000"
 preserveAspectRatio="xMidYMid meet">
<metadata>
Created by potrace 1.16, written by Peter Selinger 2001-2019
</metadata>
<g transform="translate(0.000000,81.000000) scale(0.100000,-0.100000)"
fill="#000000" stroke="none">
<path d="M375 760 c3 -5 16 -10 29 -10 70 0 192 -102 219 -183 16 -49 30 -55
135 -56 83 -1 86 3 43 70 -58 89 -150 155 -251 178 -59 14 -183 14 -175 1z"/>
<path d="M240 721 c-80 -26 -146 -86 -188 -170 -38 -78 -43 -192 -12 -273 39
-105 141 -191 264 -224 64 -17 208 -17 261 1 l40 13 -56 1 c-118 2 -222 69
-276 179 -25 51 -28 67 -28 162 0 92 3 111 25 154 33 64 78 98 139 104 65 6
123 -24 162 -85 16 -26 29 -42 29 -36 0 13 -51 82 -81 110 -57 52 -209 87
-279 64z"/>
<path d="M413 459 c15 -9 17 -27 17 -144 0 -122 -2 -137 -20 -155 l-20 -20 67
0 c55 0 64 2 51 13 -19 14 -21 23 -19 90 1 46 2 47 32 47 72 0 114 95 68 154
-19 25 -25 26 -107 26 -64 -1 -82 -3 -69 -11z"/>
<path d="M633 459 c15 -9 17 -27 17 -154 0 -127 -2 -145 -17 -154 -14 -8 -2
-10 47 -10 49 0 61 2 48 10 -14 8 -18 24 -18 74 l0 65 34 0 c22 0 45 9 63 24
23 20 28 32 28 71 0 70 -23 85 -134 85 -63 -1 -81 -3 -68 -11z"/>
</g>
</svg>
